TITLE ""
FILE "Step1_Track35.mp3" MP3
  TRACK 01 AUDIO
    TITLE "Step1_Track35_01"
    INDEX 01 00:00:00
  TRACK 02 AUDIO
    TITLE "Step1_Track35_02"
    INDEX 01 00:00:22
  TRACK 03 AUDIO
    TITLE "Step1_Track35_03"
    INDEX 01 00:01:74
  TRACK 04 AUDIO
    TITLE "Step1_Track35_04"
    INDEX 01 00:02:58
  TRACK 05 AUDIO
    TITLE "Step1_Track35_05"
    INDEX 01 00:03:54
  TRACK 06 AUDIO
    TITLE "Step1_Track35_06"
    INDEX 01 00:03:71
  TRACK 07 AUDIO
    TITLE "Step1_Track35_07"
    INDEX 01 00:08:02
  TRACK 08 AUDIO
    TITLE "Step1_Track35_08"
    INDEX 01 00:08:27
  TRACK 09 AUDIO
    TITLE "Step1_Track35_09"
    INDEX 01 00:09:27
  TRACK 10 AUDIO
    TITLE "Step1_Track35_10"
    INDEX 01 00:09:29
  TRACK 11 AUDIO
    TITLE "Step1_Track35_11"
    INDEX 01 00:12:12
  TRACK 12 AUDIO
    TITLE "Step1_Track35_12"
    INDEX 01 00:12:47
  TRACK 13 AUDIO
    TITLE "Step1_Track35_13"
    INDEX 01 00:13:50
  TRACK 14 AUDIO
    TITLE "Step1_Track35_14"
    INDEX 01 00:13:56
  TRACK 15 AUDIO
    TITLE "Step1_Track35_15"
    INDEX 01 00:17:48
  TRACK 16 AUDIO
    TITLE "Step1_Track35_16"
    INDEX 01 00:18:14
  TRACK 17 AUDIO
    TITLE "Step1_Track35_17"
    INDEX 01 00:19:15
  TRACK 18 AUDIO
    TITLE "Step1_Track35_18"
    INDEX 01 00:19:19
  TRACK 19 AUDIO
    TITLE "Step1_Track35_19"
    INDEX 01 00:23:00
  TRACK 20 AUDIO
    TITLE "Step1_Track35_20"
    INDEX 01 00:23:31
  TRACK 21 AUDIO
    TITLE "Step1_Track35_21"
    INDEX 01 00:24:28
  TRACK 22 AUDIO
    TITLE "Step1_Track35_22"
    INDEX 01 00:24:44
  TRACK 23 AUDIO
    TITLE "Step1_Track35_23"
    INDEX 01 00:27:07
  TRACK 24 AUDIO
    TITLE "Step1_Track35_24"
    INDEX 01 00:27:31
  TRACK 25 AUDIO
    TITLE "Step1_Track35_25"
    INDEX 01 00:28:36
  TRACK 26 AUDIO
    TITLE "Step1_Track35_26"
    INDEX 01 00:28:42
  TRACK 27 AUDIO
    TITLE "Step1_Track35_27"
    INDEX 01 00:32:42
  TRACK 28 AUDIO
    TITLE "Step1_Track35_28"
    INDEX 01 00:33:04
  TRACK 29 AUDIO
    TITLE "Step1_Track35_29"
    INDEX 01 00:34:09
  TRACK 30 AUDIO
    TITLE "Step1_Track35_30"
    INDEX 01 00:34:23
  TRACK 31 AUDIO
    TITLE "Step1_Track35_31"
    INDEX 01 00:37:60
  TRACK 32 AUDIO
    TITLE "Step1_Track35_32"
    INDEX 01 00:38:23
  TRACK 33 AUDIO
    TITLE "Step1_Track35_33"
    INDEX 01 00:39:03
  TRACK 34 AUDIO
    TITLE "Step1_Track35_34"
    INDEX 01 00:39:22
  TRACK 35 AUDIO
    TITLE "Step1_Track35_35"
    INDEX 01 00:42:71
  TRACK 36 AUDIO
    TITLE "Step1_Track35_36"
    INDEX 01 00:43:16
  TRACK 37 AUDIO
    TITLE "Step1_Track35_37"
    INDEX 01 00:44:21
  TRACK 38 AUDIO
    TITLE "Step1_Track35_38"
    INDEX 01 00:44:27
  TRACK 39 AUDIO
    TITLE "Step1_Track35_39"
    INDEX 01 00:48:19
  TRACK 40 AUDIO
    TITLE "Step1_Track35_40"
    INDEX 01 00:48:49
  TRACK 41 AUDIO
    TITLE "Step1_Track35_41"
    INDEX 01 00:49:46
  TRACK 42 AUDIO
    TITLE "Step1_Track35_42"
    INDEX 01 00:49:58
  TRACK 43 AUDIO
    TITLE "Step1_Track35_43"
    INDEX 01 00:52:74
